<?xml version="1.0" encoding="utf-8"?>
<!-- Generator: Adobe Illustrator 27.5.0, SVG Export Plug-In . SVG Version: 6.00 Build 0)  -->
<svg version="1.1" id="Capa_1" xmlns="http://www.w3.org/2000/svg" xmlns:xlink="http://www.w3.org/1999/xlink" x="0px" y="0px"
	 viewBox="0 0 3968.5 3968.5" style="enable-background:new 0 0 3968.5 3968.5;" xml:space="preserve">
<rect style="fill:#EFEFF0;" width="3968.5" height="3968.5"/>
<g>
	<path d="M1294.193,3520.902h32.86v32.86h-98.58v-32.86h32.86v-98.58h-32.86v-32.86h98.58v32.86h-32.86V3520.902z"/>
	<path d="M1491.352,3553.762v-164.299h32.86v131.439h65.72v32.86H1491.352z"/>
	<path d="M1655.651,3520.902h-32.86v-98.58h32.86v-32.86h65.72v32.86h32.86v98.58h-32.86v32.86h-65.72V3520.902z M1721.371,3520.902
		v-98.58h-65.72v98.58H1721.371z"/>
	<path d="M1787.091,3389.463h32.86v131.439h-32.86V3389.463z M1819.951,3520.902h32.86v32.86h-32.86V3520.902z M1852.811,3455.183
		h32.86v65.72h-32.86V3455.183z M1918.53,3389.463v65.72h-32.86v-65.72H1918.53z"/>
	<path d="M1951.39,3553.762v-164.299h98.58v32.86h-65.72v32.86h65.72v32.86h-65.72v32.86h65.72v32.86H1951.39z"/>
	<path d="M2247.129,3455.183h-32.86v-65.72h32.86V3455.183z M2312.849,3389.463h32.86v131.439h-32.86v-32.86h-65.72v-32.86h65.72
		V3389.463z M2312.849,3520.902v32.86h-65.72v-32.86H2312.849z"/>
	<path d="M2411.428,3520.902h-32.86v-98.58h32.86v-32.86h65.72v32.86h32.86v98.58h-32.86v32.86h-65.72V3520.902z M2477.148,3520.902
		v-98.58h-65.72v98.58H2477.148z"/>
	<path d="M2575.727,3520.902h-32.86v-131.439h32.86V3520.902z M2641.447,3520.902v32.86h-65.72v-32.86H2641.447z M2641.447,3389.463
		h32.86v131.439h-32.86V3389.463z"/>
	<path d="M2740.027,3488.042h-32.86v-98.58h32.86V3488.042z M2740.027,3553.762h-32.86v-32.86h32.86V3553.762z"/>
</g>
<rect x="2197.565" y="1709.262" style="fill:#E75239;" width="142.287" height="142.287"/>
<rect x="1912.902" y="2420.64" style="fill:#BE1E2D;" width="142.287" height="142.287"/>
<rect x="2339.852" y="1424.688" style="fill:#E75239;" width="142.287" height="142.287"/>
<rect x="3051.187" y="998.021" style="fill:#282829;" width="142.287" height="142.287"/>
<rect x="2624.327" y="855.734" style="fill:#BE1E2D;" width="142.287" height="142.287"/>
<rect x="2766.613" y="1140.308" style="fill:#E75239;" width="142.287" height="142.287"/>
<rect x="1059.171" y="713.447" style="fill:#282829;" width="142.287" height="142.287"/>
<rect x="1201.458" y="713.447" style="fill:#282829;" width="142.287" height="142.287"/>
<rect x="1343.745" y="713.447" style="fill:#282829;" width="142.287" height="142.287"/>
<rect x="1486.032" y="713.447" style="fill:#282829;" width="142.287" height="142.287"/>
<rect x="2339.753" y="713.447" style="fill:#282829;" width="142.287" height="142.287"/>
<rect x="2482.04" y="713.447" style="fill:#282829;" width="142.287" height="142.287"/>
<rect x="2624.327" y="713.447" style="fill:#282829;" width="142.287" height="142.287"/>
<rect x="2766.613" y="713.447" style="fill:#282829;" width="142.287" height="142.287"/>
<rect x="916.884" y="855.734" style="fill:#282829;" width="142.287" height="142.287"/>
<rect x="1059.171" y="855.734" style="fill:#E75239;" width="142.287" height="142.287"/>
<rect x="1201.458" y="855.734" style="fill:#E75239;" width="142.287" height="142.287"/>
<rect x="1343.745" y="855.734" style="fill:#E75239;" width="142.287" height="142.287"/>
<rect x="1486.032" y="855.734" style="fill:#E75239;" width="142.287" height="142.287"/>
<rect x="1628.319" y="855.734" style="fill:#282829;" width="142.287" height="142.287"/>
<rect x="2197.466" y="855.734" style="fill:#282829;" width="142.287" height="142.287"/>
<rect x="2339.753" y="855.734" style="fill:#BE1E2D;" width="142.287" height="142.287"/>
<rect x="2482.04" y="855.734" style="fill:#BE1E2D;" width="142.287" height="142.287"/>
<rect x="2766.613" y="855.734" style="fill:#BE1E2D;" width="142.287" height="142.287"/>
<rect x="2908.9" y="855.734" style="fill:#282829;" width="142.287" height="142.287"/>
<rect x="774.598" y="998.021" style="fill:#282829;" width="142.287" height="142.287"/>
<rect x="916.884" y="998.021" style="fill:#E75239;" width="142.287" height="142.287"/>
<rect x="1059.171" y="998.021" style="fill:#E75239;" width="142.287" height="142.287"/>
<rect x="1201.458" y="998.021" style="fill:#FDD7C8;" width="142.287" height="142.287"/>
<rect x="1343.745" y="998.021" style="fill:#F9B29A;" width="142.287" height="142.287"/>
<rect x="1486.032" y="998.021" style="fill:#E75239;" width="142.287" height="142.287"/>
<rect x="1628.319" y="998.021" style="fill:#E75239;" width="142.287" height="142.287"/>
<rect x="1770.606" y="998.021" style="fill:#282829;" width="142.287" height="142.287"/>
<rect x="2055.179" y="998.021" style="fill:#282829;" width="142.287" height="142.287"/>
<rect x="2197.466" y="998.021" style="fill:#BE1E2D;" width="142.287" height="142.287"/>
<rect x="2339.753" y="998.021" style="fill:#E75239;" width="142.287" height="142.287"/>
<rect x="2482.04" y="998.021" style="fill:#E75239;" width="142.287" height="142.287"/>
<rect x="2766.613" y="998.021" style="fill:#BE1E2D;" width="142.287" height="142.287"/>
<rect x="2908.9" y="998.021" style="fill:#BE1E2D;" width="142.287" height="142.287"/>
<rect x="774.598" y="1140.308" style="fill:#282829;" width="142.287" height="142.287"/>
<rect x="916.884" y="1140.308" style="fill:#E75239;" width="142.287" height="142.287"/>
<rect x="1059.171" y="1140.308" style="fill:#FDD7C8;" width="142.287" height="142.287"/>
<rect x="1201.458" y="1140.308" style="fill:#F9B29A;" width="142.287" height="142.287"/>
<rect x="1343.745" y="1140.308" style="fill:#E75239;" width="142.287" height="142.287"/>
<rect x="1486.032" y="1140.308" style="fill:#E75239;" width="142.287" height="142.287"/>
<rect x="1628.319" y="1140.308" style="fill:#E75239;" width="142.287" height="142.287"/>
<rect x="1770.606" y="1140.308" style="fill:#E75239;" width="142.287" height="142.287"/>
<rect x="2055.179" y="1140.308" style="fill:#BE1E2D;" width="142.287" height="142.287"/>
<rect x="2197.466" y="1140.308" style="fill:#E75239;" width="142.287" height="142.287"/>
<rect x="2339.753" y="1140.308" style="fill:#E75239;" width="142.287" height="142.287"/>
<rect x="2482.04" y="1140.308" style="fill:#E75239;" width="142.287" height="142.287"/>
<rect x="2624.327" y="1140.308" style="fill:#E75239;" width="142.287" height="142.287"/>
<rect x="2908.9" y="1140.308" style="fill:#BE1E2D;" width="142.287" height="142.287"/>
<rect x="3051.187" y="1140.308" style="fill:#282829;" width="142.287" height="142.287"/>
<rect x="774.696" y="1282.402" style="fill:#282829;" width="142.287" height="142.287"/>
<rect x="916.983" y="1282.402" style="fill:#E75239;" width="142.287" height="142.287"/>
<rect x="1059.27" y="1282.402" style="fill:#E75239;" width="142.287" height="142.287"/>
<rect x="1201.557" y="1282.402" style="fill:#E75239;" width="142.287" height="142.287"/>
<rect x="1343.844" y="1282.402" style="fill:#E75239;" width="142.287" height="142.287"/>
<rect x="1486.13" y="1282.402" style="fill:#E75239;" width="142.287" height="142.287"/>
<rect x="1628.417" y="1282.402" style="fill:#E75239;" width="142.287" height="142.287"/>
<rect x="1770.704" y="1282.402" style="fill:#E75239;" width="142.287" height="142.287"/>
<rect x="1912.991" y="1282.402" style="fill:#BE1E2D;" width="142.287" height="142.287"/>
<rect x="2055.278" y="1282.402" style="fill:#E75239;" width="142.287" height="142.287"/>
<rect x="2197.565" y="1282.402" style="fill:#E75239;" width="142.287" height="142.287"/>
<rect x="2339.852" y="1282.402" style="fill:#E75239;" width="142.287" height="142.287"/>
<rect x="2482.138" y="1282.402" style="fill:#E75239;" width="142.287" height="142.287"/>
<rect x="2624.425" y="1282.402" style="fill:#E75239;" width="142.287" height="142.287"/>
<rect x="2766.712" y="1282.402" style="fill:#E75239;" width="142.287" height="142.287"/>
<rect x="2908.999" y="1282.402" style="fill:#BE1E2D;" width="142.287" height="142.287"/>
<rect x="3051.286" y="1282.402" style="fill:#282829;" width="142.287" height="142.287"/>
<rect x="916.983" y="1424.688" style="fill:#282829;" width="142.287" height="142.287"/>
<rect x="1059.27" y="1424.688" style="fill:#E75239;" width="142.287" height="142.287"/>
<rect x="1201.557" y="1424.688" style="fill:#E75239;" width="142.287" height="142.287"/>
<rect x="1343.844" y="1424.688" style="fill:#E75239;" width="142.287" height="142.287"/>
<rect x="1486.13" y="1424.688" style="fill:#E75239;" width="142.287" height="142.287"/>
<rect x="1628.417" y="1424.688" style="fill:#E75239;" width="142.287" height="142.287"/>
<rect x="1770.704" y="1424.688" style="fill:#E75239;" width="142.291" height="142.287"/>
<rect x="1912.996" y="1424.688" style="fill:#E75239;" width="142.282" height="142.287"/>
<rect x="2055.278" y="1424.688" style="fill:#E75239;" width="142.287" height="142.287"/>
<rect x="2197.565" y="1424.688" style="fill:#E75239;" width="142.287" height="142.287"/>
<rect x="2482.138" y="1424.688" style="fill:#E75239;" width="142.287" height="142.287"/>
<rect x="2624.425" y="1424.688" style="fill:#E75239;" width="142.287" height="142.287"/>
<rect x="2766.712" y="1424.688" style="fill:#BE1E2D;" width="142.287" height="142.287"/>
<rect x="2908.999" y="1424.688" style="fill:#282829;" width="142.287" height="142.287"/>
<rect x="916.983" y="1566.975" style="fill:#282829;" width="142.287" height="142.287"/>
<rect x="1059.27" y="1566.975" style="fill:#E75239;" width="142.287" height="142.287"/>
<rect x="1201.557" y="1566.975" style="fill:#E75239;" width="142.287" height="142.287"/>
<rect x="1343.844" y="1566.975" style="fill:#E75239;" width="142.287" height="142.287"/>
<rect x="1486.13" y="1566.975" style="fill:#E75239;" width="142.287" height="142.287"/>
<rect x="1628.417" y="1566.975" style="fill:#E75239;" width="142.287" height="142.287"/>
<rect x="1770.704" y="1566.975" style="fill:#E75239;" width="142.287" height="142.287"/>
<rect x="1912.991" y="1566.975" style="fill:#E75239;" width="142.287" height="142.287"/>
<rect x="2055.278" y="1566.975" style="fill:#E75239;" width="142.287" height="142.287"/>
<rect x="2197.565" y="1566.975" style="fill:#E75239;" width="142.287" height="142.287"/>
<rect x="2339.852" y="1566.975" style="fill:#E75239;" width="142.287" height="142.287"/>
<rect x="2482.138" y="1566.975" style="fill:#E75239;" width="142.287" height="142.287"/>
<rect x="2624.425" y="1566.975" style="fill:#E75239;" width="142.287" height="142.287"/>
<rect x="2766.712" y="1566.975" style="fill:#BE1E2D;" width="142.287" height="142.287"/>
<rect x="2908.999" y="1566.975" style="fill:#282829;" width="142.287" height="142.287"/>
<rect x="1059.27" y="1709.262" style="fill:#282829;" width="142.287" height="142.287"/>
<rect x="1201.557" y="1709.262" style="fill:#E75239;" width="142.287" height="142.287"/>
<rect x="1343.844" y="1709.262" style="fill:#E75239;" width="142.287" height="142.287"/>
<rect x="1486.13" y="1709.262" style="fill:#E75239;" width="142.287" height="142.287"/>
<rect x="1628.417" y="1709.262" style="fill:#E75239;" width="142.287" height="142.287"/>
<rect x="1770.704" y="1709.262" style="fill:#E75239;" width="142.291" height="142.287"/>
<rect x="2055.278" y="1709.262" style="fill:#E75239;" width="142.287" height="142.287"/>
<rect x="2339.852" y="1709.262" style="fill:#E75239;" width="142.287" height="142.287"/>
<rect x="2482.138" y="1709.262" style="fill:#E75239;" width="142.287" height="142.287"/>
<rect x="2624.425" y="1709.262" style="fill:#BE1E2D;" width="142.287" height="142.287"/>
<rect x="2766.712" y="1709.262" style="fill:#282829;" width="142.287" height="142.287"/>
<rect x="1201.369" y="1851.681" style="fill:#282829;" width="142.287" height="142.287"/>
<rect x="1343.656" y="1851.681" style="fill:#E75239;" width="142.287" height="142.287"/>
<rect x="1485.942" y="1851.681" style="fill:#E75239;" width="142.287" height="142.287"/>
<rect x="1628.229" y="1851.681" style="fill:#E75239;" width="142.287" height="142.287"/>
<rect x="1770.516" y="1851.681" style="fill:#E75239;" width="142.287" height="142.287"/>
<rect x="1912.803" y="1851.681" style="fill:#E75239;" width="142.287" height="142.287"/>
<rect x="2055.09" y="1851.681" style="fill:#E75239;" width="142.287" height="142.287"/>
<rect x="2197.376" y="1851.681" style="fill:#E75239;" width="142.287" height="142.287"/>
<rect x="2339.663" y="1851.681" style="fill:#E75239;" width="142.287" height="142.287"/>
<rect x="2481.95" y="1851.681" style="fill:#BE1E2D;" width="142.287" height="142.287"/>
<rect x="2624.237" y="1851.681" style="fill:#282829;" width="142.287" height="142.287"/>
<rect x="1343.656" y="1993.968" style="fill:#282829;" width="142.287" height="142.283"/>
<rect x="1485.942" y="1993.968" style="fill:#E75239;" width="142.287" height="142.283"/>
<rect x="1628.229" y="1993.968" style="fill:#E75239;" width="142.287" height="142.283"/>
<rect x="1770.516" y="1993.968" style="fill:#E75239;" width="142.287" height="142.283"/>
<rect x="1912.803" y="1993.968" style="fill:#E75239;" width="142.287" height="142.283"/>
<rect x="2055.09" y="1993.968" style="fill:#E75239;" width="142.287" height="142.283"/>
<rect x="2197.376" y="1993.968" style="fill:#E75239;" width="142.287" height="142.283"/>
<rect x="2339.663" y="1993.968" style="fill:#BE1E2D;" width="142.287" height="142.283"/>
<rect x="2481.95" y="1993.968" style="fill:#282829;" width="142.287" height="142.283"/>
<rect x="1485.942" y="2136.25" style="fill:#282829;" width="142.287" height="142.291"/>
<rect x="1628.229" y="2136.25" style="fill:#E75239;" width="142.287" height="142.291"/>
<rect x="1770.516" y="2136.25" style="fill:#E75239;" width="142.287" height="142.291"/>
<rect x="1912.803" y="2136.25" style="fill:#E75239;" width="142.287" height="142.291"/>
<rect x="2055.09" y="2136.25" style="fill:#E75239;" width="142.287" height="142.291"/>
<rect x="2197.376" y="2136.25" style="fill:#BE1E2D;" width="142.287" height="142.291"/>
<rect x="2339.663" y="2136.25" style="fill:#282829;" width="142.287" height="142.291"/>
<rect x="1628.229" y="2278.542" style="fill:#282829;" width="142.287" height="142.287"/>
<rect x="1770.516" y="2278.542" style="fill:#E75239;" width="142.287" height="142.287"/>
<rect x="1912.803" y="2278.542" style="fill:#E75239;" width="142.287" height="142.287"/>
<rect x="2055.09" y="2278.542" style="fill:#BE1E2D;" width="142.287" height="142.287"/>
<rect x="2197.376" y="2278.542" style="fill:#282829;" width="142.287" height="142.287"/>
<rect x="1770.615" y="2420.64" style="fill:#282829;" width="142.287" height="142.287"/>
<rect x="2055.188" y="2420.64" style="fill:#282829;" width="142.287" height="142.287"/>
<rect x="1912.906" y="2562.927" style="fill:#282829;" width="142.282" height="142.287"/>
<rect x="2624.327" y="998.021" style="fill:#E75239;" width="142.287" height="142.287"/>
<rect x="1912.892" y="1140.308" style="fill:#282829;" width="142.287" height="142.287"/>
<rect x="1912.996" y="1709.262" style="fill:#E75239;" width="142.282" height="142.287"/>
</svg>
